<svg xmlns="http://www.w3.org/2000/svg" width="670" height="206" viewBox="0 0 670 206" role="img" aria-label="namquangzzz">
<defs><linearGradient id="g" gradientUnits="userSpaceOnUse" x1="0" y1="0" x2="670" y2="0" spreadMethod="reflect"><stop offset="0.00" stop-color="#312284"/><stop offset="0.25" stop-color="#2f6fd6"/><stop offset="0.50" stop-color="#5B93E5"/><stop offset="0.75" stop-color="#9a7fe0"/><stop offset="1.00" stop-color="#e58fb0"/>
<animateTransform attributeName="gradientTransform" type="translate" values="0 0;670 0" dur="8s" repeatCount="indefinite"/></linearGradient>
<clipPath id="c0"><rect x="0" y="74.00" width="0" height="16.38"><animate attributeName="width" values="0;0;670;670" keyTimes="0.0000;0.1870;0.2320;1.0000" dur="10.0s" repeatCount="indefinite"/></rect></clipPath><clipPath id="c1"><rect x="0" y="86.38" width="0" height="16.38"><animate attributeName="width" values="0;0;670;670" keyTimes="0.0000;0.1960;0.2410;1.0000" dur="10.0s" repeatCount="indefinite"/></rect></clipPath><clipPath id="c2"><rect x="0" y="98.75" width="0" height="16.38"><animate attributeName="width" values="0;0;670;670" keyTimes="0.0000;0.2050;0.2500;1.0000" dur="10.0s" repeatCount="indefinite"/></rect></clipPath><clipPath id="c3"><rect x="0" y="111.13" width="0" height="16.38"><animate attributeName="width" values="0;0;670;670" keyTimes="0.0000;0.2140;0.2590;1.0000" dur="10.0s" repeatCount="indefinite"/></rect></clipPath><clipPath id="c4"><rect x="0" y="123.51" width="0" height="16.38"><animate attributeName="width" values="0;0;670;670" keyTimes="0.0000;0.2230;0.2680;1.0000" dur="10.0s" repeatCount="indefinite"/></rect></clipPath><clipPath id="c5"><rect x="0" y="135.88" width="0" height="16.38"><animate attributeName="width" values="0;0;670;670" keyTimes="0.0000;0.2320;0.2770;1.0000" dur="10.0s" repeatCount="indefinite"/></rect></clipPath></defs>
<style>
text{font-family:ui-monospace,SFMono-Regular,"SF Mono",Menlo,Consolas,"Liberation Mono",monospace;font-size:14px;white-space:pre}
.ttl{fill:#57606a;font-size:12px} .pr{fill:#d6336c;font-weight:700} .v{fill:#1f2328} .cur{fill:#6e4fd1}
.sh{stroke:#a2bae6;stroke-width:1.3;stroke-linecap:square;fill:none}
</style>
<rect x="0.5" y=".5" width="669" height="205" rx="8" fill="#f6f8fa" stroke="#d0d7de"/><path d="M0.5 30V8.5a8 8 0 0 1 8-8h653a8 8 0 0 1 8 8V30z" fill="#eaeef2"/><line x1="0.5" y1="30" x2="669.5" y2="30" stroke="#d0d7de"/><circle cx="18" cy="15" r="5.5" fill="#ff5f57"/><circle cx="34" cy="15" r="5.5" fill="#febc2e"/><circle cx="50" cy="15" r="5.5" fill="#28c840"/><text x="335.0" y="19.5" text-anchor="middle" class="ttl">cmd — ctquang@github</text>
<text x="24" y="56"><tspan class="pr">> </tspan><tspan class="v"><tspan fill-opacity="0">f<animate attributeName="fill-opacity" values="0;1;0;0" keyTimes="0.0000;0.0350;0.9200;1.0000" calcMode="discrete" dur="10.0s" repeatCount="indefinite"/></tspan><tspan fill-opacity="0">i<animate attributeName="fill-opacity" values="0;1;0;0" keyTimes="0.0000;0.0415;0.9200;1.0000" calcMode="discrete" dur="10.0s" repeatCount="indefinite"/></tspan><tspan fill-opacity="0">g<animate attributeName="fill-opacity" values="0;1;0;0" keyTimes="0.0000;0.0480;0.9200;1.0000" calcMode="discrete" dur="10.0s" repeatCount="indefinite"/></tspan><tspan fill-opacity="0">l<animate attributeName="fill-opacity" values="0;1;0;0" keyTimes="0.0000;0.0545;0.9200;1.0000" calcMode="discrete" dur="10.0s" repeatCount="indefinite"/></tspan><tspan fill-opacity="0">e<animate attributeName="fill-opacity" values="0;1;0;0" keyTimes="0.0000;0.0610;0.9200;1.0000" calcMode="discrete" dur="10.0s" repeatCount="indefinite"/></tspan><tspan fill-opacity="0">t<animate attributeName="fill-opacity" values="0;1;0;0" keyTimes="0.0000;0.0675;0.9200;1.0000" calcMode="discrete" dur="10.0s" repeatCount="indefinite"/></tspan><tspan fill-opacity="0"> <animate attributeName="fill-opacity" values="0;1;0;0" keyTimes="0.0000;0.0740;0.9200;1.0000" calcMode="discrete" dur="10.0s" repeatCount="indefinite"/></tspan><tspan fill-opacity="0">n<animate attributeName="fill-opacity" values="0;1;0;0" keyTimes="0.0000;0.0805;0.9200;1.0000" calcMode="discrete" dur="10.0s" repeatCount="indefinite"/></tspan><tspan fill-opacity="0">a<animate attributeName="fill-opacity" values="0;1;0;0" keyTimes="0.0000;0.0870;0.9200;1.0000" calcMode="discrete" dur="10.0s" repeatCount="indefinite"/></tspan><tspan fill-opacity="0">m<animate attributeName="fill-opacity" values="0;1;0;0" keyTimes="0.0000;0.0935;0.9200;1.0000" calcMode="discrete" dur="10.0s" repeatCount="indefinite"/></tspan><tspan fill-opacity="0">q<animate attributeName="fill-opacity" values="0;1;0;0" keyTimes="0.0000;0.1000;0.9200;1.0000" calcMode="discrete" dur="10.0s" repeatCount="indefinite"/></tspan><tspan fill-opacity="0">u<animate attributeName="fill-opacity" values="0;1;0;0" keyTimes="0.0000;0.1065;0.9200;1.0000" calcMode="discrete" dur="10.0s" repeatCount="indefinite"/></tspan><tspan fill-opacity="0">a<animate attributeName="fill-opacity" values="0;1;0;0" keyTimes="0.0000;0.1130;0.9200;1.0000" calcMode="discrete" dur="10.0s" repeatCount="indefinite"/></tspan><tspan fill-opacity="0">n<animate attributeName="fill-opacity" values="0;1;0;0" keyTimes="0.0000;0.1195;0.9200;1.0000" calcMode="discrete" dur="10.0s" repeatCount="indefinite"/></tspan><tspan fill-opacity="0">g<animate attributeName="fill-opacity" values="0;1;0;0" keyTimes="0.0000;0.1260;0.9200;1.0000" calcMode="discrete" dur="10.0s" repeatCount="indefinite"/></tspan><tspan fill-opacity="0">z<animate attributeName="fill-opacity" values="0;1;0;0" keyTimes="0.0000;0.1325;0.9200;1.0000" calcMode="discrete" dur="10.0s" repeatCount="indefinite"/></tspan><tspan fill-opacity="0">z<animate attributeName="fill-opacity" values="0;1;0;0" keyTimes="0.0000;0.1390;0.9200;1.0000" calcMode="discrete" dur="10.0s" repeatCount="indefinite"/></tspan><tspan fill-opacity="0">z<animate attributeName="fill-opacity" values="0;1;0;0" keyTimes="0.0000;0.1455;0.9200;1.0000" calcMode="discrete" dur="10.0s" repeatCount="indefinite"/></tspan></tspan></text>
<g clip-path="url(#c0)" opacity="0"><animate attributeName="opacity" values="0;0;1;1;0.35;0.9;0;0" keyTimes="0.0000;0.1870;0.2020;0.8250;0.8370;0.8450;0.8570;1.0000" dur="10.0s" repeatCount="indefinite"/><animateTransform attributeName="transform" type="translate" values="0 0;0 0;-7 0;5 0;-3 0;9 0;0 0;0 0" keyTimes="0.0000;0.8250;0.8310;0.8370;0.8430;0.8490;0.8570;1.0000" calcMode="discrete" dur="10.0s" repeatCount="indefinite"/><rect x="24.00" y="75.60" width="19.04" height="13.18" fill="url(#g)"/><rect x="68.43" y="75.60" width="12.69" height="13.18" fill="url(#g)"/><rect x="93.82" y="75.60" width="31.73" height="13.18" fill="url(#g)"/><rect x="138.24" y="75.60" width="19.04" height="13.18" fill="url(#g)"/><rect x="182.67" y="75.60" width="19.04" height="13.18" fill="url(#g)"/><rect x="214.41" y="75.60" width="38.08" height="13.18" fill="url(#g)"/><rect x="265.18" y="75.60" width="12.69" height="13.18" fill="url(#g)"/><rect x="303.27" y="75.60" width="12.69" height="13.18" fill="url(#g)"/><rect x="328.65" y="75.60" width="31.73" height="13.18" fill="url(#g)"/><rect x="373.08" y="75.60" width="19.04" height="13.18" fill="url(#g)"/><rect x="417.51" y="75.60" width="12.69" height="13.18" fill="url(#g)"/><rect x="442.90" y="75.60" width="38.08" height="13.18" fill="url(#g)"/><rect x="493.67" y="75.60" width="44.43" height="13.18" fill="url(#g)"/><rect x="544.45" y="75.60" width="44.43" height="13.18" fill="url(#g)"/><rect x="595.22" y="75.60" width="44.43" height="13.18" fill="url(#g)"/><path d="M43.04 82.19L46.21 82.19" class="sh"/><path d="M46.21 82.19L46.21 88.38" class="sh"/><path d="M81.12 82.19L84.30 82.19" class="sh"/><path d="M84.30 82.19L84.30 88.38" class="sh"/><path d="M125.55 82.19L128.72 82.19" class="sh"/><path d="M128.72 82.19L128.72 88.38" class="sh"/><path d="M157.29 82.19L160.46 82.19" class="sh"/><path d="M160.46 82.19L160.46 88.38" class="sh"/><path d="M201.71 82.19L204.89 82.19" class="sh"/><path d="M204.89 82.19L204.89 88.38" class="sh"/><path d="M252.49 82.19L255.66 82.19" class="sh"/><path d="M255.66 82.19L255.66 88.38" class="sh"/><path d="M277.88 82.19L281.05 82.19" class="sh"/><path d="M281.05 82.19L281.05 88.38" class="sh"/><path d="M315.96 82.19L319.13 82.19" class="sh"/><path d="M319.13 82.19L319.13 88.38" class="sh"/><path d="M360.39 82.19L363.56 82.19" class="sh"/><path d="M363.56 82.19L363.56 88.38" class="sh"/><path d="M392.12 82.19L395.30 82.19" class="sh"/><path d="M395.30 82.19L395.30 88.38" class="sh"/><path d="M430.20 82.19L433.38 82.19" class="sh"/><path d="M433.38 82.19L433.38 88.38" class="sh"/><path d="M480.98 82.19L484.15 82.19" class="sh"/><path d="M484.15 82.19L484.15 88.38" class="sh"/><path d="M538.10 82.19L541.28 82.19" class="sh"/><path d="M541.28 82.19L541.28 88.38" class="sh"/><path d="M588.88 82.19L592.05 82.19" class="sh"/><path d="M592.05 82.19L592.05 88.38" class="sh"/><path d="M639.65 82.19L642.83 82.19" class="sh"/><path d="M642.83 82.19L642.83 88.38" class="sh"/></g>
<g clip-path="url(#c1)" opacity="0"><animate attributeName="opacity" values="0;0;1;1;0.35;0.9;0;0" keyTimes="0.0000;0.1960;0.2110;0.8180;0.8300;0.8380;0.8500;1.0000" dur="10.0s" repeatCount="indefinite"/><animateTransform attributeName="transform" type="translate" values="0 0;0 0;-7 0;5 0;-3 0;9 0;0 0;0 0" keyTimes="0.0000;0.8180;0.8240;0.8300;0.8360;0.8420;0.8500;1.0000" calcMode="discrete" dur="10.0s" repeatCount="indefinite"/><rect x="24.00" y="87.98" width="25.39" height="13.18" fill="url(#g)"/><rect x="68.43" y="87.98" width="12.69" height="13.18" fill="url(#g)"/><rect x="87.47" y="87.98" width="12.69" height="13.18" fill="url(#g)"/><rect x="119.20" y="87.98" width="12.69" height="13.18" fill="url(#g)"/><rect x="138.24" y="87.98" width="25.39" height="13.18" fill="url(#g)"/><rect x="176.33" y="87.98" width="25.39" height="13.18" fill="url(#g)"/><rect x="208.06" y="87.98" width="12.69" height="13.18" fill="url(#g)"/><rect x="246.14" y="87.98" width="12.69" height="13.18" fill="url(#g)"/><rect x="265.18" y="87.98" width="12.69" height="13.18" fill="url(#g)"/><rect x="303.27" y="87.98" width="12.69" height="13.18" fill="url(#g)"/><rect x="322.31" y="87.98" width="12.69" height="13.18" fill="url(#g)"/><rect x="354.04" y="87.98" width="12.69" height="13.18" fill="url(#g)"/><rect x="373.08" y="87.98" width="25.39" height="13.18" fill="url(#g)"/><rect x="417.51" y="87.98" width="12.69" height="13.18" fill="url(#g)"/><rect x="436.55" y="87.98" width="12.69" height="13.18" fill="url(#g)"/><rect x="512.71" y="87.98" width="19.04" height="13.18" fill="url(#g)"/><rect x="563.49" y="87.98" width="19.04" height="13.18" fill="url(#g)"/><rect x="614.27" y="87.98" width="19.04" height="13.18" fill="url(#g)"/><path d="M49.39 94.56L52.56 94.56" class="sh"/><path d="M52.56 94.56L52.56 100.75" class="sh"/><path d="M84.30 88.38L84.30 100.75" class="sh"/><path d="M103.34 94.56L106.51 94.56" class="sh"/><path d="M103.34 94.56L103.34 100.75" class="sh"/><path d="M106.51 94.56L112.86 94.56" class="sh"/><path d="M112.86 94.56L119.20 94.56" class="sh"/><path d="M131.90 94.56L135.07 94.56" class="sh"/><path d="M135.07 94.56L135.07 100.75" class="sh"/><path d="M163.63 94.56L166.81 94.56" class="sh"/><path d="M166.81 94.56L166.81 100.75" class="sh"/><path d="M204.89 88.38L204.89 100.75" class="sh"/><path d="M223.93 94.56L227.10 94.56" class="sh"/><path d="M223.93 94.56L223.93 100.75" class="sh"/><path d="M227.10 94.56L233.45 94.56" class="sh"/><path d="M233.45 94.56L239.80 94.56" class="sh"/><path d="M239.80 94.56L246.14 94.56" class="sh"/><path d="M258.84 94.56L262.01 94.56" class="sh"/><path d="M262.01 94.56L262.01 100.75" class="sh"/><path d="M281.05 88.38L281.05 100.75" class="sh"/><path d="M319.13 88.38L319.13 100.75" class="sh"/><path d="M338.17 94.56L341.35 94.56" class="sh"/><path d="M338.17 94.56L338.17 100.75" class="sh"/><path d="M341.35 94.56L347.69 94.56" class="sh"/><path d="M347.69 94.56L354.04 94.56" class="sh"/><path d="M366.73 94.56L369.91 94.56" class="sh"/><path d="M369.91 94.56L369.91 100.75" class="sh"/><path d="M398.47 94.56L401.64 94.56" class="sh"/><path d="M401.64 94.56L401.64 100.75" class="sh"/><path d="M433.38 88.38L433.38 100.75" class="sh"/><path d="M452.42 94.56L455.59 94.56" class="sh"/><path d="M452.42 94.56L452.42 100.75" class="sh"/><path d="M455.59 94.56L461.94 94.56" class="sh"/><path d="M461.94 94.56L468.29 94.56" class="sh"/><path d="M468.29 94.56L474.63 94.56" class="sh"/><path d="M474.63 94.56L480.98 94.56" class="sh"/><path d="M480.98 94.56L484.15 94.56" class="sh"/><path d="M484.15 88.38L484.15 94.56" class="sh"/><path d="M496.85 94.56L500.02 94.56" class="sh"/><path d="M496.85 88.38L496.85 94.56" class="sh"/><path d="M500.02 94.56L506.37 94.56" class="sh"/><path d="M506.37 94.56L512.71 94.56" class="sh"/><path d="M534.93 94.56L538.10 94.56" class="sh"/><path d="M534.93 94.56L534.93 100.75" class="sh"/><path d="M538.10 94.56L541.28 94.56" class="sh"/><path d="M541.28 88.38L541.28 94.56" class="sh"/><path d="M547.62 94.56L550.80 94.56" class="sh"/><path d="M547.62 88.38L547.62 94.56" class="sh"/><path d="M550.80 94.56L557.14 94.56" class="sh"/><path d="M557.14 94.56L563.49 94.56" class="sh"/><path d="M585.70 94.56L588.88 94.56" class="sh"/><path d="M585.70 94.56L585.70 100.75" class="sh"/><path d="M588.88 94.56L592.05 94.56" class="sh"/><path d="M592.05 88.38L592.05 94.56" class="sh"/><path d="M598.40 94.56L601.57 94.56" class="sh"/><path d="M598.40 88.38L598.40 94.56" class="sh"/><path d="M601.57 94.56L607.92 94.56" class="sh"/><path d="M607.92 94.56L614.27 94.56" class="sh"/><path d="M636.48 94.56L639.65 94.56" class="sh"/><path d="M636.48 94.56L636.48 100.75" class="sh"/><path d="M639.65 94.56L642.83 94.56" class="sh"/><path d="M642.83 88.38L642.83 94.56" class="sh"/></g>
<g clip-path="url(#c2)" opacity="0"><animate attributeName="opacity" values="0;0;1;1;0.35;0.9;0;0" keyTimes="0.0000;0.2050;0.2200;0.8110;0.8230;0.8310;0.8430;1.0000" dur="10.0s" repeatCount="indefinite"/><animateTransform attributeName="transform" type="translate" values="0 0;0 0;-7 0;5 0;-3 0;9 0;0 0;0 0" keyTimes="0.0000;0.8110;0.8170;0.8230;0.8290;0.8350;0.8430;1.0000" calcMode="discrete" dur="10.0s" repeatCount="indefinite"/><rect x="24.00" y="100.35" width="12.69" height="13.18" fill="url(#g)"/><rect x="43.04" y="100.35" width="12.69" height="13.18" fill="url(#g)"/><rect x="68.43" y="100.35" width="12.69" height="13.18" fill="url(#g)"/><rect x="87.47" y="100.35" width="44.43" height="13.18" fill="url(#g)"/><rect x="138.24" y="100.35" width="12.69" height="13.18" fill="url(#g)"/><rect x="157.29" y="100.35" width="25.39" height="13.18" fill="url(#g)"/><rect x="189.02" y="100.35" width="12.69" height="13.18" fill="url(#g)"/><rect x="208.06" y="100.35" width="12.69" height="13.18" fill="url(#g)"/><rect x="246.14" y="100.35" width="12.69" height="13.18" fill="url(#g)"/><rect x="265.18" y="100.35" width="12.69" height="13.18" fill="url(#g)"/><rect x="303.27" y="100.35" width="12.69" height="13.18" fill="url(#g)"/><rect x="322.31" y="100.35" width="44.43" height="13.18" fill="url(#g)"/><rect x="373.08" y="100.35" width="12.69" height="13.18" fill="url(#g)"/><rect x="392.12" y="100.35" width="12.69" height="13.18" fill="url(#g)"/><rect x="417.51" y="100.35" width="12.69" height="13.18" fill="url(#g)"/><rect x="436.55" y="100.35" width="12.69" height="13.18" fill="url(#g)"/><rect x="468.29" y="100.35" width="19.04" height="13.18" fill="url(#g)"/><rect x="506.37" y="100.35" width="19.04" height="13.18" fill="url(#g)"/><rect x="557.14" y="100.35" width="19.04" height="13.18" fill="url(#g)"/><rect x="607.92" y="100.35" width="19.04" height="13.18" fill="url(#g)"/><path d="M39.87 106.94L43.04 106.94" class="sh"/><path d="M39.87 106.94L39.87 113.13" class="sh"/><path d="M55.73 106.94L58.91 106.94" class="sh"/><path d="M58.91 106.94L58.91 113.13" class="sh"/><path d="M84.30 100.75L84.30 113.13" class="sh"/><path d="M135.07 100.75L135.07 113.13" class="sh"/><path d="M154.11 106.94L157.29 106.94" class="sh"/><path d="M154.11 106.94L154.11 113.13" class="sh"/><path d="M185.85 106.94L189.02 106.94" class="sh"/><path d="M185.85 106.94L185.85 113.13" class="sh"/><path d="M204.89 100.75L204.89 113.13" class="sh"/><path d="M223.93 100.75L223.93 113.13" class="sh"/><path d="M262.01 100.75L262.01 113.13" class="sh"/><path d="M281.05 100.75L281.05 113.13" class="sh"/><path d="M319.13 100.75L319.13 113.13" class="sh"/><path d="M369.91 100.75L369.91 113.13" class="sh"/><path d="M388.95 106.94L392.12 106.94" class="sh"/><path d="M388.95 106.94L388.95 113.13" class="sh"/><path d="M404.82 106.94L407.99 106.94" class="sh"/><path d="M407.99 106.94L407.99 113.13" class="sh"/><path d="M433.38 100.75L433.38 113.13" class="sh"/><path d="M452.42 100.75L452.42 113.13" class="sh"/><path d="M487.33 106.94L490.50 106.94" class="sh"/><path d="M490.50 106.94L490.50 113.13" class="sh"/><path d="M528.58 106.94L531.76 106.94" class="sh"/><path d="M528.58 106.94L528.58 113.13" class="sh"/><path d="M531.76 106.94L534.93 106.94" class="sh"/><path d="M534.93 100.75L534.93 106.94" class="sh"/><path d="M579.36 106.94L582.53 106.94" class="sh"/><path d="M579.36 106.94L579.36 113.13" class="sh"/><path d="M582.53 106.94L585.70 106.94" class="sh"/><path d="M585.70 100.75L585.70 106.94" class="sh"/><path d="M630.13 106.94L633.31 106.94" class="sh"/><path d="M630.13 106.94L630.13 113.13" class="sh"/><path d="M633.31 106.94L636.48 106.94" class="sh"/><path d="M636.48 100.75L636.48 106.94" class="sh"/></g>
<g clip-path="url(#c3)" opacity="0"><animate attributeName="opacity" values="0;0;1;1;0.35;0.9;0;0" keyTimes="0.0000;0.2140;0.2290;0.8040;0.8160;0.8240;0.8360;1.0000" dur="10.0s" repeatCount="indefinite"/><animateTransform attributeName="transform" type="translate" values="0 0;0 0;-7 0;5 0;-3 0;9 0;0 0;0 0" keyTimes="0.0000;0.8040;0.8100;0.8160;0.8220;0.8280;0.8360;1.0000" calcMode="discrete" dur="10.0s" repeatCount="indefinite"/><rect x="24.00" y="112.73" width="12.69" height="13.18" fill="url(#g)"/><rect x="49.39" y="112.73" width="12.69" height="13.18" fill="url(#g)"/><rect x="68.43" y="112.73" width="12.69" height="13.18" fill="url(#g)"/><rect x="87.47" y="112.73" width="12.69" height="13.18" fill="url(#g)"/><rect x="119.20" y="112.73" width="12.69" height="13.18" fill="url(#g)"/><rect x="138.24" y="112.73" width="12.69" height="13.18" fill="url(#g)"/><rect x="163.63" y="112.73" width="12.69" height="13.18" fill="url(#g)"/><rect x="189.02" y="112.73" width="12.69" height="13.18" fill="url(#g)"/><rect x="208.06" y="112.73" width="12.69" height="13.18" fill="url(#g)"/><rect x="246.14" y="112.73" width="12.69" height="13.18" fill="url(#g)"/><rect x="265.18" y="112.73" width="12.69" height="13.18" fill="url(#g)"/><rect x="303.27" y="112.73" width="12.69" height="13.18" fill="url(#g)"/><rect x="322.31" y="112.73" width="12.69" height="13.18" fill="url(#g)"/><rect x="354.04" y="112.73" width="12.69" height="13.18" fill="url(#g)"/><rect x="373.08" y="112.73" width="12.69" height="13.18" fill="url(#g)"/><rect x="398.47" y="112.73" width="12.69" height="13.18" fill="url(#g)"/><rect x="417.51" y="112.73" width="12.69" height="13.18" fill="url(#g)"/><rect x="436.55" y="112.73" width="12.69" height="13.18" fill="url(#g)"/><rect x="474.63" y="112.73" width="12.69" height="13.18" fill="url(#g)"/><rect x="500.02" y="112.73" width="19.04" height="13.18" fill="url(#g)"/><rect x="550.80" y="112.73" width="19.04" height="13.18" fill="url(#g)"/><rect x="601.57" y="112.73" width="19.04" height="13.18" fill="url(#g)"/><path d="M39.87 113.13L39.87 125.51" class="sh"/><path d="M46.21 119.32L49.39 119.32" class="sh"/><path d="M46.21 113.13L46.21 119.32" class="sh"/><path d="M62.08 119.32L65.26 119.32" class="sh"/><path d="M65.26 119.32L65.26 125.51" class="sh"/><path d="M84.30 113.13L84.30 125.51" class="sh"/><path d="M103.34 119.32L106.51 119.32" class="sh"/><path d="M103.34 119.32L103.34 125.51" class="sh"/><path d="M106.51 119.32L112.86 119.32" class="sh"/><path d="M112.86 119.32L119.20 119.32" class="sh"/><path d="M135.07 113.13L135.07 125.51" class="sh"/><path d="M154.11 113.13L154.11 125.51" class="sh"/><path d="M160.46 119.32L163.63 119.32" class="sh"/><path d="M160.46 113.13L160.46 119.32" class="sh"/><path d="M179.50 119.32L182.67 119.32" class="sh"/><path d="M179.50 119.32L179.50 125.51" class="sh"/><path d="M182.67 119.32L185.85 119.32" class="sh"/><path d="M185.85 113.13L185.85 119.32" class="sh"/><path d="M204.89 113.13L204.89 125.51" class="sh"/><path d="M223.93 113.13L223.93 125.51" class="sh"/><rect x="227.10" y="119.32" width="6.65" height="6.49" fill="url(#g)"/><rect x="233.45" y="119.32" width="6.65" height="6.49" fill="url(#g)"/><path d="M262.01 113.13L262.01 125.51" class="sh"/><path d="M281.05 113.13L281.05 125.51" class="sh"/><path d="M319.13 113.13L319.13 125.51" class="sh"/><path d="M338.17 119.32L341.35 119.32" class="sh"/><path d="M338.17 119.32L338.17 125.51" class="sh"/><path d="M341.35 119.32L347.69 119.32" class="sh"/><path d="M347.69 119.32L354.04 119.32" class="sh"/><path d="M369.91 113.13L369.91 125.51" class="sh"/><path d="M388.95 113.13L388.95 125.51" class="sh"/><path d="M395.30 119.32L398.47 119.32" class="sh"/><path d="M395.30 113.13L395.30 119.32" class="sh"/><path d="M411.16 119.32L414.34 119.32" class="sh"/><path d="M414.34 119.32L414.34 125.51" class="sh"/><path d="M433.38 113.13L433.38 125.51" class="sh"/><path d="M452.42 113.13L452.42 125.51" class="sh"/><path d="M490.50 113.13L490.50 125.51" class="sh"/><path d="M522.23 119.32L525.41 119.32" class="sh"/><path d="M522.23 119.32L522.23 125.51" class="sh"/><path d="M525.41 119.32L528.58 119.32" class="sh"/><path d="M528.58 113.13L528.58 119.32" class="sh"/><path d="M573.01 119.32L576.18 119.32" class="sh"/><path d="M573.01 119.32L573.01 125.51" class="sh"/><path d="M576.18 119.32L579.36 119.32" class="sh"/><path d="M579.36 113.13L579.36 119.32" class="sh"/><path d="M623.79 119.32L626.96 119.32" class="sh"/><path d="M623.79 119.32L623.79 125.51" class="sh"/><path d="M626.96 119.32L630.13 119.32" class="sh"/><path d="M630.13 113.13L630.13 119.32" class="sh"/></g>
<g clip-path="url(#c4)" opacity="0"><animate attributeName="opacity" values="0;0;1;1;0.35;0.9;0;0" keyTimes="0.0000;0.2230;0.2380;0.7970;0.8090;0.8170;0.8290;1.0000" dur="10.0s" repeatCount="indefinite"/><animateTransform attributeName="transform" type="translate" values="0 0;0 0;-7 0;5 0;-3 0;9 0;0 0;0 0" keyTimes="0.0000;0.7970;0.8030;0.8090;0.8150;0.8210;0.8290;1.0000" calcMode="discrete" dur="10.0s" repeatCount="indefinite"/><rect x="24.00" y="125.11" width="12.69" height="13.18" fill="url(#g)"/><rect x="55.73" y="125.11" width="25.39" height="13.18" fill="url(#g)"/><rect x="87.47" y="125.11" width="12.69" height="13.18" fill="url(#g)"/><rect x="119.20" y="125.11" width="12.69" height="13.18" fill="url(#g)"/><rect x="138.24" y="125.11" width="12.69" height="13.18" fill="url(#g)"/><rect x="189.02" y="125.11" width="12.69" height="13.18" fill="url(#g)"/><rect x="214.41" y="125.11" width="38.08" height="13.18" fill="url(#g)"/><rect x="271.53" y="125.11" width="38.08" height="13.18" fill="url(#g)"/><rect x="322.31" y="125.11" width="12.69" height="13.18" fill="url(#g)"/><rect x="354.04" y="125.11" width="12.69" height="13.18" fill="url(#g)"/><rect x="373.08" y="125.11" width="12.69" height="13.18" fill="url(#g)"/><rect x="404.82" y="125.11" width="25.39" height="13.18" fill="url(#g)"/><rect x="442.90" y="125.11" width="38.08" height="13.18" fill="url(#g)"/><rect x="493.67" y="125.11" width="44.43" height="13.18" fill="url(#g)"/><rect x="544.45" y="125.11" width="44.43" height="13.18" fill="url(#g)"/><rect x="595.22" y="125.11" width="44.43" height="13.18" fill="url(#g)"/><path d="M39.87 125.51L39.87 137.88" class="sh"/><path d="M52.56 131.69L55.73 131.69" class="sh"/><path d="M52.56 125.51L52.56 131.69" class="sh"/><path d="M84.30 125.51L84.30 137.88" class="sh"/><path d="M103.34 125.51L103.34 137.88" class="sh"/><path d="M135.07 125.51L135.07 137.88" class="sh"/><path d="M154.11 125.51L154.11 137.88" class="sh"/><path d="M166.81 131.69L169.98 131.69" class="sh"/><path d="M166.81 125.51L166.81 131.69" class="sh"/><path d="M169.98 131.69L176.33 131.69" class="sh"/><path d="M176.33 131.69L179.50 131.69" class="sh"/><path d="M179.50 125.51L179.50 131.69" class="sh"/><path d="M204.89 125.51L204.89 137.88" class="sh"/><path d="M211.23 131.69L214.41 131.69" class="sh"/><path d="M211.23 125.51L211.23 131.69" class="sh"/><path d="M255.66 131.69L258.84 131.69" class="sh"/><path d="M255.66 131.69L255.66 137.88" class="sh"/><path d="M258.84 131.69L262.01 131.69" class="sh"/><path d="M262.01 125.51L262.01 131.69" class="sh"/><path d="M268.36 131.69L271.53 131.69" class="sh"/><path d="M268.36 125.51L268.36 131.69" class="sh"/><path d="M312.79 131.69L315.96 131.69" class="sh"/><path d="M312.79 131.69L312.79 137.88" class="sh"/><path d="M315.96 131.69L319.13 131.69" class="sh"/><path d="M319.13 125.51L319.13 131.69" class="sh"/><path d="M338.17 125.51L338.17 137.88" class="sh"/><path d="M369.91 125.51L369.91 137.88" class="sh"/><path d="M388.95 125.51L388.95 137.88" class="sh"/><path d="M401.64 131.69L404.82 131.69" class="sh"/><path d="M401.64 125.51L401.64 131.69" class="sh"/><path d="M433.38 125.51L433.38 137.88" class="sh"/><path d="M439.72 131.69L442.90 131.69" class="sh"/><path d="M439.72 125.51L439.72 131.69" class="sh"/><path d="M484.15 131.69L487.33 131.69" class="sh"/><path d="M484.15 131.69L484.15 137.88" class="sh"/><path d="M487.33 131.69L490.50 131.69" class="sh"/><path d="M490.50 125.51L490.50 131.69" class="sh"/><path d="M538.10 131.69L541.28 131.69" class="sh"/><path d="M541.28 131.69L541.28 137.88" class="sh"/><path d="M588.88 131.69L592.05 131.69" class="sh"/><path d="M592.05 131.69L592.05 137.88" class="sh"/><path d="M639.65 131.69L642.83 131.69" class="sh"/><path d="M642.83 131.69L642.83 137.88" class="sh"/></g>
<g clip-path="url(#c5)" opacity="0"><animate attributeName="opacity" values="0;0;1;1;0.35;0.9;0;0" keyTimes="0.0000;0.2320;0.2470;0.7900;0.8020;0.8100;0.8220;1.0000" dur="10.0s" repeatCount="indefinite"/><animateTransform attributeName="transform" type="translate" values="0 0;0 0;-7 0;5 0;-3 0;9 0;0 0;0 0" keyTimes="0.0000;0.7900;0.7960;0.8020;0.8080;0.8140;0.8220;1.0000" calcMode="discrete" dur="10.0s" repeatCount="indefinite"/><path d="M27.17 144.07L30.35 144.07" class="sh"/><path d="M27.17 137.88L27.17 144.07" class="sh"/><path d="M30.35 144.07L36.69 144.07" class="sh"/><path d="M36.69 144.07L39.87 144.07" class="sh"/><path d="M39.87 137.88L39.87 144.07" class="sh"/><path d="M58.91 144.07L62.08 144.07" class="sh"/><path d="M58.91 137.88L58.91 144.07" class="sh"/><path d="M62.08 144.07L68.43 144.07" class="sh"/><path d="M68.43 144.07L74.78 144.07" class="sh"/><path d="M74.78 144.07L81.12 144.07" class="sh"/><path d="M81.12 144.07L84.30 144.07" class="sh"/><path d="M84.30 137.88L84.30 144.07" class="sh"/><path d="M90.64 144.07L93.82 144.07" class="sh"/><path d="M90.64 137.88L90.64 144.07" class="sh"/><path d="M93.82 144.07L100.16 144.07" class="sh"/><path d="M100.16 144.07L103.34 144.07" class="sh"/><path d="M103.34 137.88L103.34 144.07" class="sh"/><path d="M122.38 144.07L125.55 144.07" class="sh"/><path d="M122.38 137.88L122.38 144.07" class="sh"/><path d="M125.55 144.07L131.90 144.07" class="sh"/><path d="M131.90 144.07L135.07 144.07" class="sh"/><path d="M135.07 137.88L135.07 144.07" class="sh"/><path d="M141.42 144.07L144.59 144.07" class="sh"/><path d="M141.42 137.88L141.42 144.07" class="sh"/><path d="M144.59 144.07L150.94 144.07" class="sh"/><path d="M150.94 144.07L154.11 144.07" class="sh"/><path d="M154.11 137.88L154.11 144.07" class="sh"/><path d="M192.19 144.07L195.37 144.07" class="sh"/><path d="M192.19 137.88L192.19 144.07" class="sh"/><path d="M195.37 144.07L201.71 144.07" class="sh"/><path d="M201.71 144.07L204.89 144.07" class="sh"/><path d="M204.89 137.88L204.89 144.07" class="sh"/><path d="M217.58 144.07L220.76 144.07" class="sh"/><path d="M217.58 137.88L217.58 144.07" class="sh"/><path d="M220.76 144.07L227.10 144.07" class="sh"/><path d="M227.10 144.07L233.45 144.07" class="sh"/><rect x="233.45" y="137.88" width="6.65" height="6.49" fill="url(#g)"/><rect x="239.80" y="137.88" width="6.65" height="6.49" fill="url(#g)"/><path d="M246.14 144.07L252.49 144.07" class="sh"/><path d="M252.49 144.07L255.66 144.07" class="sh"/><path d="M255.66 137.88L255.66 144.07" class="sh"/><path d="M274.70 144.07L277.88 144.07" class="sh"/><path d="M274.70 137.88L274.70 144.07" class="sh"/><path d="M277.88 144.07L284.22 144.07" class="sh"/><path d="M284.22 144.07L290.57 144.07" class="sh"/><path d="M290.57 144.07L296.92 144.07" class="sh"/><path d="M296.92 144.07L303.27 144.07" class="sh"/><path d="M303.27 144.07L309.61 144.07" class="sh"/><path d="M309.61 144.07L312.79 144.07" class="sh"/><path d="M312.79 137.88L312.79 144.07" class="sh"/><path d="M325.48 144.07L328.65 144.07" class="sh"/><path d="M325.48 137.88L325.48 144.07" class="sh"/><path d="M328.65 144.07L335.00 144.07" class="sh"/><path d="M335.00 144.07L338.17 144.07" class="sh"/><path d="M338.17 137.88L338.17 144.07" class="sh"/><path d="M357.21 144.07L360.39 144.07" class="sh"/><path d="M357.21 137.88L357.21 144.07" class="sh"/><path d="M360.39 144.07L366.73 144.07" class="sh"/><path d="M366.73 144.07L369.91 144.07" class="sh"/><path d="M369.91 137.88L369.91 144.07" class="sh"/><path d="M376.26 144.07L379.43 144.07" class="sh"/><path d="M376.26 137.88L376.26 144.07" class="sh"/><path d="M379.43 144.07L385.78 144.07" class="sh"/><path d="M385.78 144.07L388.95 144.07" class="sh"/><path d="M388.95 137.88L388.95 144.07" class="sh"/><path d="M407.99 144.07L411.16 144.07" class="sh"/><path d="M407.99 137.88L407.99 144.07" class="sh"/><path d="M411.16 144.07L417.51 144.07" class="sh"/><path d="M417.51 144.07L423.86 144.07" class="sh"/><path d="M423.86 144.07L430.20 144.07" class="sh"/><path d="M430.20 144.07L433.38 144.07" class="sh"/><path d="M433.38 137.88L433.38 144.07" class="sh"/><path d="M446.07 144.07L449.24 144.07" class="sh"/><path d="M446.07 137.88L446.07 144.07" class="sh"/><path d="M449.24 144.07L455.59 144.07" class="sh"/><path d="M455.59 144.07L461.94 144.07" class="sh"/><path d="M461.94 144.07L468.29 144.07" class="sh"/><path d="M468.29 144.07L474.63 144.07" class="sh"/><path d="M474.63 144.07L480.98 144.07" class="sh"/><path d="M480.98 144.07L484.15 144.07" class="sh"/><path d="M484.15 137.88L484.15 144.07" class="sh"/><path d="M496.85 144.07L500.02 144.07" class="sh"/><path d="M496.85 137.88L496.85 144.07" class="sh"/><path d="M500.02 144.07L506.37 144.07" class="sh"/><path d="M506.37 144.07L512.71 144.07" class="sh"/><path d="M512.71 144.07L519.06 144.07" class="sh"/><path d="M519.06 144.07L525.41 144.07" class="sh"/><path d="M525.41 144.07L531.76 144.07" class="sh"/><path d="M531.76 144.07L538.10 144.07" class="sh"/><path d="M538.10 144.07L541.28 144.07" class="sh"/><path d="M541.28 137.88L541.28 144.07" class="sh"/><path d="M547.62 144.07L550.80 144.07" class="sh"/><path d="M547.62 137.88L547.62 144.07" class="sh"/><path d="M550.80 144.07L557.14 144.07" class="sh"/><path d="M557.14 144.07L563.49 144.07" class="sh"/><path d="M563.49 144.07L569.84 144.07" class="sh"/><path d="M569.84 144.07L576.18 144.07" class="sh"/><path d="M576.18 144.07L582.53 144.07" class="sh"/><path d="M582.53 144.07L588.88 144.07" class="sh"/><path d="M588.88 144.07L592.05 144.07" class="sh"/><path d="M592.05 137.88L592.05 144.07" class="sh"/><path d="M598.40 144.07L601.57 144.07" class="sh"/><path d="M598.40 137.88L598.40 144.07" class="sh"/><path d="M601.57 144.07L607.92 144.07" class="sh"/><path d="M607.92 144.07L614.27 144.07" class="sh"/><path d="M614.27 144.07L620.61 144.07" class="sh"/><path d="M620.61 144.07L626.96 144.07" class="sh"/><path d="M626.96 144.07L633.31 144.07" class="sh"/><path d="M633.31 144.07L639.65 144.07" class="sh"/><path d="M639.65 144.07L642.83 144.07" class="sh"/><path d="M642.83 137.88L642.83 144.07" class="sh"/></g>
<g opacity="0"><animate attributeName="opacity" values="0;1;0;0" keyTimes="0.0000;0.2910;0.9200;1.0000" calcMode="discrete" dur="10.0s" repeatCount="indefinite"/><text x="24" y="184.3"><tspan class="pr">> </tspan><tspan class="cur">▌<animate attributeName="fill-opacity" values="1;0" dur="1.1s" calcMode="discrete" repeatCount="indefinite"/></tspan></text></g>
</svg>
